<?xml version="1.0" standalone="no"?>
<!DOCTYPE svg PUBLIC "-//W3C//DTD SVG 20010904//EN"
 "http://www.w3.org/TR/2001/REC-SVG-20010904/DTD/svg10.dtd">
<svg version="1.0" xmlns="http://www.w3.org/2000/svg"
 width="657.000000pt" height="855.000000pt" viewBox="0 0 657.000000 855.000000"
 preserveAspectRatio="xMidYMid meet">
<metadata>
Created by potrace 1.16, written by Peter Selinger 2001-2019
</metadata>
<g transform="translate(0.000000,855.000000) scale(0.100000,-0.100000)"
fill="#000000" stroke="none">
<path d="M3550 6890 c-85 -27 -290 -87 -455 -135 -165 -47 -349 -101 -410
-118 l-110 -32 -5 -130 -5 -130 -70 -18 c-177 -46 -263 -77 -268 -97 -5 -20
15 -50 34 -50 5 0 26 6 46 14 77 28 174 56 196 56 13 0 28 5 34 11 7 7 35 11
63 10 41 0 69 -10 138 -48 173 -93 412 -231 412 -238 0 -4 -87 -35 -130 -45
-19 -5 -102 -29 -184 -54 -161 -49 -197 -54 -216 -31 -7 8 -17 15 -22 15 -5 0
-84 43 -175 96 -127 73 -168 92 -174 82 -5 -7 -9 -43 -9 -79 l0 -66 -97 -6
c-54 -4 -140 -7 -190 -7 l-93 0 0 191 0 192 -197 -4 -198 -4 -3 138 -3 137
-145 0 -145 0 3 -152 3 -153 140 0 140 0 3 -177 2 -178 195 0 195 0 0 -180 0
-180 -195 0 -195 0 0 -186 0 -187 115 5 c81 4 120 2 131 -7 24 -17 13 -22
-136 -70 l-125 -41 -6 -249 c-9 -357 -10 -826 -2 -923 l6 -83 52 -34 c29 -18
86 -52 129 -75 l76 -42 0 -142 0 -142 213 -121 c116 -66 246 -138 287 -160
l75 -39 5 -258 5 -257 135 -72 135 -72 5 -188 c4 -167 7 -190 23 -202 10 -7
81 -46 159 -85 77 -40 136 -76 131 -80 -4 -5 -48 -20 -96 -35 -81 -24 -87 -28
-81 -48 3 -12 43 -83 89 -157 100 -165 223 -373 295 -500 104 -184 79 -163
405 -341 105 -56 226 -125 270 -151 44 -26 88 -48 98 -48 18 0 36 35 182 345
18 39 81 171 140 295 59 124 137 288 174 365 l66 140 0 322 c0 177 3 324 6
327 3 3 67 24 142 47 l137 42 0 179 c0 134 -3 180 -12 183 -7 3 -67 -11 -132
-30 -66 -19 -123 -35 -128 -35 -4 0 -8 140 -8 310 l0 310 -27 -6 c-49 -11
-165 -44 -245 -70 l-78 -26 -2 -266 c-1 -147 -2 -289 -2 -317 1 -27 2 -195 2
-372 l2 -323 23 0 c12 0 73 16 136 35 70 22 118 32 124 26 5 -5 8 -76 5 -163
l-3 -153 -62 -130 c-34 -71 -87 -184 -118 -250 -31 -66 -77 -163 -102 -215
-25 -52 -83 -176 -130 -275 -46 -99 -88 -184 -93 -189 -5 -5 -27 27 -50 74
-23 45 -76 142 -119 214 -119 201 -231 401 -231 412 0 6 87 40 193 75 l192 64
3 193 2 194 -30 -7 c-26 -6 -111 -32 -475 -146 -33 -10 -64 -19 -68 -19 -4 0
-6 57 -5 127 l3 128 125 36 c297 86 416 121 432 130 17 9 18 42 18 499 l0 490
-28 0 c-16 0 -78 -16 -138 -35 -81 -25 -110 -31 -116 -22 -4 7 -8 81 -8 165 0
106 -3 152 -11 152 -23 0 -787 -223 -1024 -298 l-90 -29 -7 121 c-4 67 -4 124
0 127 4 4 43 16 87 27 44 12 107 29 140 39 l60 19 3 139 c1 76 -1 142 -6 147
-4 4 -28 2 -53 -6 -24 -8 -84 -26 -134 -41 -49 -15 -146 -44 -215 -66 -68 -21
-132 -39 -142 -39 -17 0 -18 23 -18 413 0 226 3 476 7 554 l6 142 31 10 c17 5
77 24 134 41 l102 31 0 195 c0 147 3 196 13 199 6 2 69 20 140 41 l127 37 0
147 0 148 32 6 c18 3 83 20 145 37 l113 31 0 160 c0 118 3 160 13 162 6 2 71
21 142 43 l130 39 5 124 5 124 95 28 c136 41 229 69 450 133 107 31 268 79
357 106 89 27 167 49 173 49 6 0 10 -46 10 -130 0 -104 3 -130 14 -130 7 0 66
16 131 36 64 19 120 33 123 29 3 -3 8 -57 10 -120 4 -105 6 -115 24 -115 10 0
74 18 142 40 67 22 125 40 128 40 4 0 8 -72 10 -159 1 -88 6 -163 10 -166 4
-4 63 9 132 29 69 20 128 36 131 36 3 0 5 -87 5 -194 0 -107 3 -197 8 -199 4
-3 66 13 137 34 72 21 131 39 133 39 1 0 1 -264 0 -586 l-3 -587 -95 -29 c-52
-16 -113 -35 -135 -42 l-40 -13 -3 -401 c-2 -374 -3 -402 -20 -403 -9 0 -60
-13 -112 -28 l-95 -28 -5 313 c-3 172 -8 315 -11 318 -5 6 -141 -27 -272 -65
l-67 -20 2 -482 3 -482 24 -3 c13 -2 73 10 135 27 61 17 124 33 139 36 15 3
31 13 34 23 4 9 13 21 20 25 10 6 11 12 4 21 -5 6 -11 59 -12 116 l-2 105 59
18 c32 10 97 30 144 45 l85 27 3 393 2 393 23 9 c12 5 75 25 140 45 l117 36 0
638 0 638 -22 20 c-13 11 -76 49 -140 84 l-117 63 -3 85 -3 86 -140 80 -140
80 0 42 c0 53 -15 68 -120 124 -224 119 -425 235 -465 269 -25 20 -135 88
-245 150 -110 62 -229 129 -265 150 -107 62 -148 80 -177 79 -15 0 -98 -22
-183 -49z m160 -63 c0 6 13 11 30 11 16 -1 28 -4 26 -7 -2 -3 7 -7 21 -7 13
-1 32 -9 42 -18 10 -9 22 -16 28 -16 5 0 22 -11 37 -25 14 -13 26 -21 26 -18
0 3 6 0 13 -6 8 -6 17 -8 20 -4 4 3 7 1 7 -5 0 -7 9 -12 20 -12 11 0 20 -4 20
-10 0 -5 5 -10 11 -10 6 0 28 -13 49 -30 21 -16 45 -30 55 -30 10 0 13 -5 9
-12 -4 -7 -3 -8 4 -4 17 11 92 -33 92 -54 0 -24 -150 -80 -213 -80 -13 0 -27
-4 -32 -9 -6 -5 -32 -15 -60 -24 -27 -8 -111 -34 -185 -57 -74 -23 -171 -53
-215 -66 -44 -13 -115 -35 -159 -49 -43 -14 -89 -25 -101 -25 -12 0 -60 21
-106 46 -149 83 -394 226 -409 240 -12 12 -12 14 7 14 11 0 36 6 55 14 19 8
46 16 59 18 13 2 34 9 46 16 12 7 31 12 42 12 12 0 21 5 21 10 0 6 7 10 15 10
14 0 201 48 275 71 19 5 42 11 50 12 8 2 21 6 28 11 7 4 16 5 19 2 3 -3 12 -1
19 4 6 6 16 10 20 8 5 -1 23 5 40 15 17 9 34 14 37 11 3 -3 13 -1 24 4 28 15
87 32 109 32 11 0 24 4 30 9 14 14 58 18 66 6 5 -6 8 -6 8 2z m-791 -1159 c1
-77 1 -78 -26 -84 -16 -4 -61 -15 -101 -26 -41 -11 -76 -17 -79 -14 -6 6 -7
216 -1 222 2 2 46 13 98 26 l95 23 7 -35 c4 -19 7 -70 7 -112z m-679 -203 c0
-62 16 -105 39 -105 44 0 244 -120 228 -136 -4 -5 -11 -4 -15 1 -8 11 -42 16
-40 6 2 -20 -4 -31 -18 -31 -9 0 -12 -5 -8 -12 5 -7 3 -8 -5 -4 -7 5 -10 15
-7 23 3 8 1 11 -4 8 -6 -3 -10 -15 -10 -26 0 -25 -23 -24 -58 1 -15 11 -42 23
-59 26 -28 6 -33 4 -33 -14 0 -11 -6 -24 -12 -29 -7 -6 -95 -13 -195 -17
l-183 -6 0 178 c0 98 3 182 7 185 3 4 89 7 190 7 l183 0 0 -55z m-253 -555
c103 -62 193 -118 198 -125 6 -6 25 -17 43 -24 36 -15 42 -31 13 -31 -11 0
-23 -5 -26 -10 -4 -6 -24 -8 -46 -6 -22 3 -37 1 -34 -4 14 -22 -38 -19 -87 6
-81 40 -355 206 -391 236 -36 30 -31 43 25 64 69 26 104 14 305 -106z m2928
-977 c-1 -12 -9 -17 -21 -15 -18 3 -18 3 1 -11 19 -15 20 -29 23 -336 2 -284
1 -321 -13 -321 -8 0 -15 5 -15 10 0 6 -8 10 -17 11 -10 0 -45 15 -78 33 l-60
31 -3 173 c-2 118 1 172 8 172 6 0 8 5 4 11 -8 14 -7 149 1 157 4 4 27 7 53 8
80 2 92 4 92 13 0 5 -10 11 -22 13 -22 3 -22 4 9 36 36 37 42 39 38 15z
m-1653 -836 c62 -30 119 -61 127 -70 12 -15 10 -18 -15 -28 -16 -6 -50 -14
-77 -17 -26 -2 -50 -9 -53 -13 -3 -5 -14 -9 -25 -9 -10 0 -19 -4 -19 -8 0 -4
-8 -8 -17 -9 -23 -2 -168 -50 -211 -71 -33 -15 -36 -14 -90 12 -77 38 -152 88
-152 103 0 6 -6 14 -12 17 -18 7 41 56 67 56 11 0 47 10 80 21 107 37 219 68
252 68 20 1 77 -20 145 -52z m498 -493 c0 -242 -4 -402 -10 -414 -5 -10 -24
-22 -42 -25 -18 -4 -37 -11 -43 -14 -5 -4 -57 -22 -115 -40 -58 -19 -152 -49
-209 -67 -57 -19 -109 -34 -116 -34 -7 0 -54 27 -104 60 -50 33 -96 60 -102
60 -6 0 -9 5 -7 11 4 13 71 36 263 88 259 71 282 79 290 104 4 12 9 153 12
313 3 161 8 296 12 301 8 11 153 60 164 55 4 -2 7 -181 7 -398z m-260 57 l0
-279 -47 -15 c-27 -8 -84 -25 -128 -37 -44 -13 -136 -40 -205 -61 -68 -22
-130 -39 -137 -39 -11 0 -13 57 -11 282 l3 282 135 37 c74 21 182 53 240 72
58 19 115 35 128 36 l22 1 0 -279z m720 10 c71 -36 183 -100 268 -155 52 -34
60 -42 49 -54 -15 -15 -368 -131 -379 -125 -9 5 -11 363 -2 363 3 0 32 -13 64
-29z m-1213 -942 c15 -5 30 -13 33 -17 3 -4 39 -25 80 -47 56 -29 91 -41 138
-45 34 -3 62 -2 62 1 0 4 9 5 20 2 12 -3 20 0 20 7 0 8 9 11 27 7 15 -3 35 0
44 6 14 9 31 5 78 -18 34 -16 61 -33 61 -37 0 -5 5 -6 10 -3 6 3 10 3 10 -2 0
-7 29 -22 72 -36 9 -3 22 -15 28 -26 9 -18 7 -21 -17 -26 -16 -3 -82 -24 -149
-45 -67 -22 -126 -40 -131 -40 -6 0 -82 41 -168 90 -86 50 -159 90 -162 90 -2
0 -23 13 -46 29 -23 16 -71 44 -106 64 -54 30 -60 36 -42 42 11 3 24 4 28 2 5
-3 17 -1 28 4 28 11 49 11 82 -2z"/>
<path d="M3950 5769 c-69 -21 -192 -58 -275 -81 -82 -23 -156 -46 -162 -51 -9
-7 -13 -45 -13 -129 l0 -119 -35 -15 c-19 -8 -74 -23 -122 -34 -51 -12 -93
-28 -100 -37 -9 -11 -13 -57 -13 -139 l0 -121 -127 -34 -128 -34 -3 -498 c-2
-469 -1 -497 15 -497 10 0 65 14 123 30 58 17 108 30 112 30 5 0 8 -59 8 -130
0 -97 3 -132 13 -136 7 -2 60 9 117 26 58 16 113 30 123 30 15 0 17 -11 17
-99 0 -54 3 -113 6 -130 8 -37 -2 -38 199 26 77 25 209 66 293 91 l152 46 0
132 0 133 58 16 c31 9 91 26 132 38 l75 23 3 129 c1 71 6 133 11 138 4 4 52
18 107 31 54 14 111 29 127 35 l27 11 0 480 c0 427 -2 481 -16 487 -8 3 -64
-8 -124 -26 -60 -17 -114 -31 -119 -31 -7 0 -11 43 -11 125 0 101 -3 127 -15
131 -8 3 -63 -8 -123 -25 -60 -17 -116 -31 -125 -31 -15 0 -17 15 -17 125 l0
125 -32 -1 c-18 0 -89 -18 -158 -40z m-52 -187 l102 -56 -2 -335 -3 -336 -125
-40 -125 -41 -3 -124 c-1 -69 -7 -129 -12 -134 -6 -6 -65 -28 -133 -51 l-122
-41 -5 -129 -5 -128 -75 -24 c-41 -12 -83 -23 -93 -23 -10 0 -51 19 -90 43
-40 24 -95 56 -124 71 -28 16 -53 36 -56 45 -2 9 -3 156 -1 326 2 247 5 311
16 316 7 4 65 22 128 41 l115 34 5 131 c3 72 7 133 10 136 3 2 50 15 105 30
55 14 112 30 128 36 l27 11 0 123 0 124 88 27 c48 15 92 29 97 31 18 6 49 -7
153 -63z m200 -831 c2 -6 12 -11 22 -11 10 0 20 -3 22 -7 2 -5 20 -17 41 -27
42 -21 47 -31 17 -33 -13 -1 -18 2 -14 10 5 8 2 7 -7 -1 -12 -11 -12 -14 1
-22 11 -7 11 -10 2 -10 -7 0 -10 -5 -7 -10 4 -6 11 -8 16 -5 5 4 9 -1 9 -9 0
-10 9 -16 24 -16 13 0 32 -3 40 -6 11 -4 15 -2 11 7 -3 8 -1 21 4 29 8 12 13
12 30 -4 10 -9 25 -19 33 -20 35 -6 188 -99 188 -114 0 -7 -88 -40 -130 -48
-17 -4 -41 5 -77 28 -81 52 -142 88 -223 131 -41 22 -93 52 -115 66 -22 15
-48 30 -57 34 -23 8 -23 27 0 27 10 0 22 4 28 9 20 20 135 22 142 2z m-211
-368 c27 -16 64 -37 83 -47 46 -25 67 -48 64 -69 -2 -14 1 -15 17 -7 16 9 19
7 19 -9 0 -11 -8 -21 -17 -24 -10 -2 -3 -4 15 -4 27 0 31 3 27 18 -6 16 -3 17
24 8 17 -6 28 -15 25 -20 -3 -5 2 -9 12 -9 26 0 130 -63 113 -68 -7 -3 -44
-15 -81 -27 -73 -25 -62 -27 -163 30 -143 80 -327 188 -347 205 -28 23 -24 27
40 42 29 7 52 16 52 19 0 13 71 -10 117 -38z m-318 -318 c31 -14 63 -29 71
-34 8 -4 51 -27 95 -51 90 -48 227 -131 265 -159 l24 -19 -39 -7 c-22 -4 -54
-13 -72 -21 -17 -8 -39 -14 -48 -14 -29 0 -99 -23 -114 -38 -8 -8 -24 -12 -37
-9 -13 2 -25 -2 -28 -9 -3 -9 -16 -11 -40 -7 -29 4 -36 2 -36 -11 0 -9 -5 -16
-11 -16 -5 0 -7 5 -4 10 3 6 1 10 -4 10 -7 0 -11 37 -11 103 0 121 8 109 -127
187 -51 29 -93 54 -93 57 0 12 31 33 49 33 11 0 23 5 26 10 11 18 77 10 134
-15z"/>
</g>
</svg>
